<svg xmlns="http://www.w3.org/2000/svg" width="1200" height="630" viewBox="0 0 1200 630" font-family="DejaVu Sans, Arial, sans-serif">
  <defs>
    <linearGradient id="bg" x1="0" y1="0" x2="1" y2="1">
      <stop offset="0" stop-color="#0c111c"/><stop offset="1" stop-color="#0a0d14"/>
    </linearGradient>
    <radialGradient id="glow" cx="0.82" cy="0.12" r="0.6">
      <stop offset="0" stop-color="#1b2c52" stop-opacity="0.9"/><stop offset="1" stop-color="#0a0d14" stop-opacity="0"/>
    </radialGradient>
    <linearGradient id="grad" x1="0" y1="0" x2="1" y2="0">
      <stop offset="0" stop-color="#6ee7b7"/><stop offset="0.55" stop-color="#5b9dff"/><stop offset="1" stop-color="#c084fc"/>
    </linearGradient>
    <linearGradient id="mark" x1="0" y1="0" x2="1" y2="1">
      <stop offset="0" stop-color="#6ee7b7"/><stop offset="1" stop-color="#5b9dff"/>
    </linearGradient>
  </defs>
  <rect width="1200" height="630" fill="url(#bg)"/>
  <rect width="1200" height="630" fill="url(#glow)"/>

  <!-- logo mark -->
  <g transform="translate(80,76)">
    <rect width="64" height="64" rx="16" fill="url(#mark)"/>
    <path d="M20 22l13 13-13 13M37 48h15" fill="none" stroke="#04140d" stroke-width="5.5" stroke-linecap="round" stroke-linejoin="round"/>
  </g>
  <text x="162" y="120" fill="#e7ebf3" font-size="30" font-weight="700">AI Builders Toolkit</text>
  <text x="162" y="152" fill="#94a0b6" font-size="20" font-weight="600">aibuilders.jrdevelopr.site</text>

  <!-- headline -->
  <text x="80" y="290" fill="#ffffff" font-size="76" font-weight="800" letter-spacing="-1">The complete AI</text>
  <text x="80" y="372" font-size="76" font-weight="800" letter-spacing="-1" fill="url(#grad)">builder&#8217;s toolkit</text>

  <text x="80" y="430" fill="#aab4c6" font-size="29" font-weight="500">Platforms &#183; providers &#183; tools &#183; building blocks &#8212; self-hosted-first, ranked by GitHub stars.</text>

  <!-- feature pills (the four tabs) -->
  <g font-size="24" font-weight="700">
    <g transform="translate(80,486)">
      <rect width="200" height="56" rx="28" fill="#10141f" stroke="#26304a"/>
      <text x="26" y="36" fill="#34d399">&#10003;</text><text x="56" y="36" fill="#dbe2ee">Platforms</text>
    </g>
    <g transform="translate(296,486)">
      <rect width="200" height="56" rx="28" fill="#10141f" stroke="#26304a"/>
      <text x="26" y="36" fill="#34d399">&#10003;</text><text x="56" y="36" fill="#dbe2ee">Providers</text>
    </g>
    <g transform="translate(512,486)">
      <rect width="173" height="56" rx="28" fill="#10141f" stroke="#26304a"/>
      <text x="26" y="36" fill="#34d399">&#10003;</text><text x="56" y="36" fill="#dbe2ee">Toolbox</text>
    </g>
    <g transform="translate(701,486)">
      <rect width="280" height="56" rx="28" fill="#10141f" stroke="#26304a"/>
      <text x="26" y="36" fill="#34d399">&#10003;</text><text x="56" y="36" fill="#dbe2ee">Building blocks</text>
    </g>
  </g>
</svg>
